<?xml version="1.0" encoding="UTF-8" standalone="no"?>
<!-- Created with Inkscape (http://www.inkscape.org/) -->

<svg
   width="256"
   height="256"
   viewBox="0 0 210 297"
   version="1.1"
   id="svg1"
   xml:space="preserve"
   sodipodi:docname="drawing_sbomqs.svg"
   inkscape:version="1.4.2 (f4327f4, 2025-05-13)"
   xmlns:inkscape="http://www.inkscape.org/namespaces/inkscape"
   xmlns:sodipodi="http://sodipodi.sourceforge.net/DTD/sodipodi-0.dtd"
   xmlns="http://www.w3.org/2000/svg"
   xmlns:svg="http://www.w3.org/2000/svg"><sodipodi:namedview
     id="namedview1"
     pagecolor="#ffffff"
     bordercolor="#000000"
     borderopacity="0.25"
     inkscape:showpageshadow="2"
     inkscape:pageopacity="0.0"
     inkscape:pagecheckerboard="0"
     inkscape:deskcolor="#d1d1d1"
     inkscape:document-units="mm"
     inkscape:zoom="0.68862935"
     inkscape:cx="397.16576"
     inkscape:cy="561.25984"
     inkscape:window-width="1920"
     inkscape:window-height="991"
     inkscape:window-x="-9"
     inkscape:window-y="-9"
     inkscape:window-maximized="1"
     inkscape:current-layer="layer3" /><defs
     id="defs1"><linearGradient
       id="swatch15"
       inkscape:swatch="solid"><stop
         style="stop-color:#000000;stop-opacity:0.73088688;"
         offset="0"
         id="stop15" /></linearGradient><linearGradient
       id="swatch14"
       inkscape:swatch="solid"><stop
         style="stop-color:#000000;stop-opacity:1;"
         offset="0"
         id="stop14" /></linearGradient><style
       id="style1">.cls-1{fill:none;stroke:#000000;stroke-linecap:round;stroke-linejoin:round;stroke-width:20px;}</style></defs><g
     inkscape:groupmode="layer"
     id="layer3"
     inkscape:label="Layer 2"><g
       style="display:inline;fill:none;stroke:#2563eb;stroke-opacity:0.972477"
       id="g5"
       transform="matrix(3.715372,0,0,3.3791837,16.174332,66.137567)"
       inkscape:label="big_gear"><path
         d="m 15,12 c 0,1.6569 -1.3431,3 -3,3 -1.6569,0 -3,-1.3431 -3,-3 0,-1.6569 1.3431,-3 3,-3 1.6569,0 3,1.3431 3,3 z"
         stroke="#000000"
         stroke-width="2"
         stroke-linecap="round"
         stroke-linejoin="round"
         id="path4"
         style="stroke:#2563eb;stroke-opacity:0.972477" /><path
         d="M 12.9046,3.06005 C 12.6988,3 12.4659,3 12,3 11.5341,3 11.3012,3 11.0954,3.06005 10.7942,3.14794 10.5281,3.32808 10.3346,3.57511 10.2024,3.74388 10.1159,3.96016 9.94291,4.39272 9.69419,5.01452 9.00393,5.33471 8.36857,5.123 L 7.79779,4.93281 C 7.3929,4.79785 7.19045,4.73036 6.99196,4.7188 6.70039,4.70181 6.4102,4.77032 6.15701,4.9159 5.98465,5.01501 5.83376,5.16591 5.53197,5.4677 5.21122,5.78845 5.05084,5.94882 4.94896,6.13189 4.79927,6.40084 4.73595,6.70934 4.76759,7.01551 4.78912,7.2239 4.87335,7.43449 5.04182,7.85566 5.30565,8.51523 5.05184,9.26878 4.44272,9.63433 L 4.16521,9.80087 C 3.74031,10.0558 3.52786,10.1833 3.37354,10.3588 3.23698,10.5141 3.13401,10.696 3.07109,10.893 3,11.1156 3,11.3658 3,11.8663 c 0,0.5926 0,0.8888 0.09462,1.1425 0.08361,0.2241 0.2196,0.4249 0.39662,0.5858 0.20034,0.182 0.47271,0.291 1.01742,0.5089 0.55668,0.2226 0.8433,0.8406 0.6537,1.4094 L 4.94721,16.1584 C 4.79819,16.6054 4.72367,16.829 4.7169,17.0486 4.70875,17.3127 4.77049,17.5742 4.89587,17.8067 5.00015,18.0002 5.16678,18.1668 5.5,18.5 c 0.33323,0.3332 0.49985,0.4998 0.69325,0.6041 0.23255,0.1254 0.49408,0.1872 0.75815,0.179 0.21962,-0.0068 0.44316,-0.0813 0.89024,-0.2303 l 0.52698,-0.1757 c 0.63531,-0.2117 1.32558,0.1084 1.57429,0.7302 0.17299,0.4325 0.25949,0.6488 0.39169,0.8176 0.1935,0.247 0.4596,0.4272 0.7608,0.5151 C 11.3012,21 11.5341,21 12,21 c 0.4659,0 0.6988,0 0.9046,-0.06 0.3012,-0.0879 0.5673,-0.2681 0.7608,-0.5151 0.1322,-0.1688 0.2187,-0.3851 0.3917,-0.8176 0.2487,-0.6218 0.939,-0.9419 1.5742,-0.73 l 0.5266,0.1756 c 0.4471,0.149 0.6707,0.2235 0.8903,0.2303 0.2641,0.0081 0.5256,-0.0536 0.7581,-0.179 0.1934,-0.1043 0.3601,-0.2709 0.6933,-0.6041 0.3332,-0.3332 0.4998,-0.4999 0.6041,-0.6933 0.1254,-0.2325 0.1871,-0.4941 0.179,-0.7581 -0.0068,-0.2196 -0.0813,-0.4432 -0.2303,-0.8903 l -0.215,-0.645 c -0.1897,-0.569 0.097,-1.1872 0.6539,-1.4099 0.5447,-0.2179 0.8171,-0.3269 1.0175,-0.5089 0.177,-0.1609 0.313,-0.3617 0.3966,-0.5858 C 21,12.7551 21,12.4589 21,11.8663 21,11.3658 21,11.1156 20.9289,10.893 20.866,10.696 20.763,10.5141 20.6265,10.3588 20.4721,10.1833 20.2597,10.0558 19.8348,9.80087 L 19.5569,9.63416 C 18.9478,9.26867 18.6939,8.51514 18.9578,7.85558 19.1262,7.43443 19.2105,7.22383 19.232,7.01543 19.2636,6.70926 19.2003,6.40077 19.0506,6.13181 18.9487,5.94875 18.7884,5.78837 18.4676,5.46762 18.1658,5.16584 18.0149,5.01494 17.8426,4.91583 17.5894,4.77024 17.2992,4.70174 17.0076,4.71872 16.8091,4.73029 16.6067,4.79777 16.2018,4.93273 L 15.6314,5.12287 C 14.9961,5.33464 14.3058,5.0145 14.0571,4.39272 13.8841,3.96016 13.7976,3.74388 13.6654,3.57511 13.4719,3.32808 13.2058,3.14794 12.9046,3.06005 Z"
         stroke="#000000"
         stroke-width="2"
         stroke-linecap="round"
         stroke-linejoin="round"
         id="path5"
         style="stroke:#2563eb;stroke-opacity:0.972477" /></g><g
       data-name="E404, gear, Media, media player, multimedia"
       id="E404_gear_Media_media_player_multimedia"
       transform="matrix(-0.18573878,0,0,0.19257077,192.5002,93.4183)"
       inkscape:label="multi_gear"
       style="display:inline;fill:#234bd7;fill-opacity:0;fill-rule:nonzero;stroke:#3b82f6;stroke-width:25.8508;stroke-dasharray:none;stroke-opacity:0.972477"><path
         class="cls-1"
         d="M 373.59,340.89 V 299.52 A 18.84,18.84 0 0 0 354.75,280.68 H 333.48 A 18.92,18.92 0 0 1 316,268.91 l -0.1,-0.24 a 19,19 0 0 1 4,-20.71 l 15,-15 a 18.83,18.83 0 0 0 0,-26.64 L 305.72,177 a 18.83,18.83 0 0 0 -26.64,0 l -15,15 a 19,19 0 0 1 -20.71,4 l -0.24,-0.1 a 18.92,18.92 0 0 1 -11.77,-17.46 v -21.19 a 18.84,18.84 0 0 0 -18.84,-18.84 h -41.41 a 18.84,18.84 0 0 0 -18.84,18.84 v 21.27 A 18.92,18.92 0 0 1 140.5,196 l -0.24,0.1 a 19,19 0 0 1 -20.71,-4 l -15,-15 a 18.83,18.83 0 0 0 -26.64,0 l -29.29,29.18 a 18.83,18.83 0 0 0 0,26.64 l 15,15 a 19,19 0 0 1 4,20.71 l -0.1,0.24 A 18.92,18.92 0 0 1 50.06,280.64 H 28.84 A 18.84,18.84 0 0 0 10,299.52 v 41.37 a 18.84,18.84 0 0 0 18.84,18.84 h 21.27 a 18.92,18.92 0 0 1 17.46,11.77 l 0.1,0.24 a 19,19 0 0 1 -4,20.71 l -15,15 a 18.83,18.83 0 0 0 0,26.64 l 29.25,29.25 a 18.83,18.83 0 0 0 26.64,0 l 15,-15 a 19,19 0 0 1 20.71,-4 l 0.24,0.1 a 18.92,18.92 0 0 1 11.77,17.46 v 21.27 A 18.84,18.84 0 0 0 171.11,502 h 41.37 a 18.84,18.84 0 0 0 18.84,-18.84 v -21.27 a 18.92,18.92 0 0 1 11.77,-17.46 l 0.24,-0.1 a 19,19 0 0 1 20.71,4 l 15,15 a 18.83,18.83 0 0 0 26.64,0 L 335,434.13 a 18.83,18.83 0 0 0 0,-26.64 l -15,-15 a 19,19 0 0 1 -4,-20.71 l 0.1,-0.24 a 18.92,18.92 0 0 1 17.46,-11.77 h 21.27 a 18.84,18.84 0 0 0 18.76,-18.88 z"
         id="path1-8"
         style="fill:#234bd7;fill-opacity:0;fill-rule:nonzero;stroke:#3b82f6;stroke-width:25.8508;stroke-linecap:round;stroke-linejoin:round;stroke-dasharray:none;stroke-opacity:0.972477" /><circle
         class="cls-1"
         cx="191.8"
         cy="320.20001"
         r="74.800003"
         id="circle1"
         style="fill:#234bd7;fill-opacity:0;fill-rule:nonzero;stroke:#3b82f6;stroke-width:25.8508;stroke-linecap:round;stroke-linejoin:round;stroke-dasharray:none;stroke-opacity:0.972477" /><path
         class="cls-1"
         d="M 207.45,138.41 V 138 a 15,15 0 0 1 15,-15 h 16.9 a 15,15 0 0 0 13.88,-9.35 c 0,-0.06 0.05,-0.13 0.08,-0.19 A 15.06,15.06 0 0 0 250.09,97 l -12,-11.94 a 15,15 0 0 1 0,-21.17 l 23.24,-23.24 a 15,15 0 0 1 21.16,0 l 11.95,12 a 15.07,15.07 0 0 0 16.45,3.18 l 0.19,-0.08 a 15,15 0 0 0 9.36,-13.88 V 25 a 15,15 0 0 1 15,-15 h 32.87 a 15,15 0 0 1 15,15 v 16.9 a 15,15 0 0 0 9.35,13.88 l 0.18,0.08 a 15.09,15.09 0 0 0 16.46,-3.18 l 12,-12 a 15,15 0 0 1 21.16,0 l 23.24,23.24 a 15,15 0 0 1 0,21.17 L 453.68,97 a 15.05,15.05 0 0 0 -3.17,16.46 l 0.07,0.19 a 15,15 0 0 0 13.87,9.35 h 16.9 a 15,15 0 0 1 15,15 v 32.86 a 15,15 0 0 1 -15,15 h -16.9 a 15,15 0 0 0 -13.87,9.36 l -0.07,0.18 a 15,15 0 0 0 3.17,16.46 l 11.95,11.95 a 15,15 0 0 1 0,21.16 l -23.24,23.24 a 15,15 0 0 1 -21.16,0 l -12,-11.95 a 15,15 0 0 0 -16.46,-3.18 l -0.18,0.07 a 15,15 0 0 0 -9.3,13.85 v 16.9 a 15,15 0 0 1 -9.77,14"
         id="path2-8"
         style="fill:#234bd7;fill-opacity:0;fill-rule:nonzero;stroke:#3b82f6;stroke-width:25.8508;stroke-linecap:round;stroke-linejoin:round;stroke-dasharray:none;stroke-opacity:0.972477" /><circle
         class="cls-1"
         cx="351.88"
         cy="154.42999"
         r="48.689999"
         id="circle2"
         style="fill:#234bd7;fill-opacity:0;fill-rule:nonzero;stroke:#3b82f6;stroke-width:25.8508;stroke-linecap:round;stroke-linejoin:round;stroke-dasharray:none;stroke-opacity:0.972477" /></g><g
       style="display:inline;fill:#c13939;fill-opacity:0;fill-rule:nonzero;stroke:#1e40af;stroke-width:1.83076;stroke-linejoin:miter;stroke-dasharray:none;stroke-opacity:0.831804;paint-order:normal"
       id="g2"
       transform="matrix(2.5935772,0,0,2.2342087,32.901721,161.13923)"
       inkscape:label="gear"
       inkscape:transform-center-x="20.747736"
       inkscape:transform-center-y="-6.1474762"><path
         d="m 15,12 c 0,1.6569 -1.3431,3 -3,3 -1.6569,0 -3,-1.3431 -3,-3 0,-1.6569 1.3431,-3 3,-3 1.6569,0 3,1.3431 3,3 z"
         stroke="#000000"
         stroke-width="2"
         stroke-linecap="round"
         stroke-linejoin="round"
         id="path1-0"
         style="fill:#c13939;fill-opacity:0;fill-rule:nonzero;stroke:#1e40af;stroke-width:1.83076;stroke-linejoin:miter;stroke-dasharray:none;stroke-opacity:0.831804;paint-order:normal" /><path
         d="M 12.9046,3.06005 C 12.6988,3 12.4659,3 12,3 11.5341,3 11.3012,3 11.0954,3.06005 10.7942,3.14794 10.5281,3.32808 10.3346,3.57511 10.2024,3.74388 10.1159,3.96016 9.94291,4.39272 9.69419,5.01452 9.00393,5.33471 8.36857,5.123 L 7.79779,4.93281 C 7.3929,4.79785 7.19045,4.73036 6.99196,4.7188 6.70039,4.70181 6.4102,4.77032 6.15701,4.9159 5.98465,5.01501 5.83376,5.16591 5.53197,5.4677 5.21122,5.78845 5.05084,5.94882 4.94896,6.13189 4.79927,6.40084 4.73595,6.70934 4.76759,7.01551 4.78912,7.2239 4.87335,7.43449 5.04182,7.85566 5.30565,8.51523 5.05184,9.26878 4.44272,9.63433 L 4.16521,9.80087 C 3.74031,10.0558 3.52786,10.1833 3.37354,10.3588 3.23698,10.5141 3.13401,10.696 3.07109,10.893 3,11.1156 3,11.3658 3,11.8663 c 0,0.5926 0,0.8888 0.09462,1.1425 0.08361,0.2241 0.2196,0.4249 0.39662,0.5858 0.20034,0.182 0.47271,0.291 1.01742,0.5089 0.55668,0.2226 0.8433,0.8406 0.6537,1.4094 L 4.94721,16.1584 C 4.79819,16.6054 4.72367,16.829 4.7169,17.0486 4.70875,17.3127 4.77049,17.5742 4.89587,17.8067 5.00015,18.0002 5.16678,18.1668 5.5,18.5 c 0.33323,0.3332 0.49985,0.4998 0.69325,0.6041 0.23255,0.1254 0.49408,0.1872 0.75815,0.179 0.21962,-0.0068 0.44316,-0.0813 0.89024,-0.2303 l 0.52698,-0.1757 c 0.63531,-0.2117 1.32558,0.1084 1.57429,0.7302 0.17299,0.4325 0.25949,0.6488 0.39169,0.8176 0.1935,0.247 0.4596,0.4272 0.7608,0.5151 C 11.3012,21 11.5341,21 12,21 c 0.4659,0 0.6988,0 0.9046,-0.06 0.3012,-0.0879 0.5673,-0.2681 0.7608,-0.5151 0.1322,-0.1688 0.2187,-0.3851 0.3917,-0.8176 0.2487,-0.6218 0.939,-0.9419 1.5742,-0.73 l 0.5266,0.1756 c 0.4471,0.149 0.6707,0.2235 0.8903,0.2303 0.2641,0.0081 0.5256,-0.0536 0.7581,-0.179 0.1934,-0.1043 0.3601,-0.2709 0.6933,-0.6041 0.3332,-0.3332 0.4998,-0.4999 0.6041,-0.6933 0.1254,-0.2325 0.1871,-0.4941 0.179,-0.7581 -0.0068,-0.2196 -0.0813,-0.4432 -0.2303,-0.8903 l -0.215,-0.645 c -0.1897,-0.569 0.097,-1.1872 0.6539,-1.4099 0.5447,-0.2179 0.8171,-0.3269 1.0175,-0.5089 0.177,-0.1609 0.313,-0.3617 0.3966,-0.5858 C 21,12.7551 21,12.4589 21,11.8663 21,11.3658 21,11.1156 20.9289,10.893 20.866,10.696 20.763,10.5141 20.6265,10.3588 20.4721,10.1833 20.2597,10.0558 19.8348,9.80087 L 19.5569,9.63416 C 18.9478,9.26867 18.6939,8.51514 18.9578,7.85558 19.1262,7.43443 19.2105,7.22383 19.232,7.01543 19.2636,6.70926 19.2003,6.40077 19.0506,6.13181 18.9487,5.94875 18.7884,5.78837 18.4676,5.46762 18.1658,5.16584 18.0149,5.01494 17.8426,4.91583 17.5894,4.77024 17.2992,4.70174 17.0076,4.71872 16.8091,4.73029 16.6067,4.79777 16.2018,4.93273 L 15.6314,5.12287 C 14.9961,5.33464 14.3058,5.0145 14.0571,4.39272 13.8841,3.96016 13.7976,3.74388 13.6654,3.57511 13.4719,3.32808 13.2058,3.14794 12.9046,3.06005 Z"
         stroke="#000000"
         stroke-width="2"
         stroke-linecap="round"
         stroke-linejoin="round"
         id="path2-9"
         style="fill:#c13939;fill-opacity:0;fill-rule:nonzero;stroke:#1e40af;stroke-width:1.83076;stroke-linejoin:miter;stroke-dasharray:none;stroke-opacity:0.831804;paint-order:normal" /></g></g><g
     inkscape:label="Layer 1"
     inkscape:groupmode="layer"
     id="layer1"
     transform="translate(-14.670865,-2.1734614)"><g
       style="fill:#0891b2;fill-opacity:1;stroke-width:0.98386502;stroke-dasharray:none;stroke:#0369a1;stroke-opacity:1" 
       id="g3"
       transform="matrix(6.1736111,0,0,6.1736111,48.617082,78.835984)"
       inkscape:label="shield"><path
         d="m 11.302,21.6149 c 0.2214,0.1291 0.3321,0.1937 0.4883,0.2272 0.1213,0.026 0.2981,0.026 0.4194,0 0.1562,-0.0335 0.2669,-0.0981 0.4883,-0.2272 C 14.646,20.4784 20,16.9084 20,12 V 6.6 C 20,6.04207 20,5.7631 19.8926,5.55048 19.7974,5.36198 19.6487,5.21152 19.4613,5.11409 19.25,5.00419 18.9663,5.00084 18.3988,4.99413 15.4272,4.95899 13.7136,4.71361 12,3 10.2864,4.71361 8.57279,4.95899 5.6012,4.99413 5.03373,5.00084 4.74999,5.00419 4.53865,5.11409 4.35129,5.21152 4.20259,5.36198 4.10739,5.55048 4,5.7631 4,6.04207 4,6.6 V 12 c 0,4.9084 5.35396,8.4784 7.302,9.6149 z"
         stroke="#000000"
         stroke-width="2"
         stroke-linecap="round"
         stroke-linejoin="round"
         id="path1-88"
         style="fill:#0891b2;fill-opacity:1;stroke-width:0.98386502;stroke-dasharray:none;stroke:#0369a1;stroke-opacity:1" /></g><g
       style="fill:none"
       id="g1"
       transform="matrix(3.0868056,0,0,3.0868056,85.579777,115.22985)"
       inkscape:label="check"><path
         opacity="0.5"
         d="M 3.46447,20.5355 C 4.92893,22 7.28595,22 12,22 c 4.714,0 7.0711,0 8.5355,-1.4645 C 22,19.0711 22,16.714 22,12 22,7.28595 22,4.92893 20.5355,3.46447 19.0711,2 16.714,2 12,2 7.28595,2 4.92893,2 3.46447,3.46447 2,4.92893 2,7.28595 2,12 c 0,4.714 0,7.0711 1.46447,8.5355 z"
         fill="#06b6d4"
         id="path1" /><path
         d="M 18.581,9.47431 C 18.843,9.15344 18.7952,8.68098 18.4743,8.41903 18.1534,8.15709 17.681,8.20486 17.419,8.52573 l -5.1676,6.33017 c -0.2129,-0.0756 -0.4575,-0.0545 -0.6613,0.0786 -0.3469,0.2264 -0.4445,0.6911 -0.2181,1.0379 l 0.2855,0.4375 c 0.1308,0.2004 0.3493,0.3263 0.5882,0.3391 0.2389,0.0127 0.4696,-0.0893 0.6209,-0.2747 z"
         fill="#06b6d4"
         id="path2" /><path
         d="M 14.581,9.47431 C 14.843,9.15343 14.7952,8.68097 14.4743,8.41903 14.1534,8.15709 13.681,8.20487 13.419,8.52574 L 8.28574,14.814 6.58102,12.7257 C 6.31908,12.4049 5.84662,12.3571 5.52574,12.619 5.20487,12.881 5.15709,13.3534 5.41903,13.6743 l 2.28571,2.8 c 0.14244,0.1745 0.35576,0.2757 0.581,0.2757 0.22524,0 0.43856,-0.1012 0.58099,-0.2757 z"
         fill="#06b6d4"
         id="path3" /></g></g></svg>
